# xmcd
#
# Track frame offsets: 
#        150
#        16727
#        33213
#        57846
#        79228
#        101108
#        128357
#        144619
#        160225
#        186810
#        208918
#
# Disc length: 3021 seconds
#
# Revision: 0
# Processed by: cddbd v1.5.2PL0 Copyright (c) Steve Scherf et al.
# Submitted via: ExactAudioCopy v1.0b3
#
DISCID=8d0bcb0b
DTITLE=Pinewolf and the Pack - Oh Yeah
DYEAR=2011
DGENRE=Blues
TTITLE0=Blowin' the House Down
TTITLE1=Station No Tracks
TTITLE2=Blue Dreams
TTITLE3=Cigarettes and Wicker Ashtrays
TTITLE4=Boom Boom Boom
TTITLE5=Walkin' the Streets
TTITLE6=Mile Away
TTITLE7=Someday Soon
TTITLE8=Take a Walk
TTITLE9=Home of the Blues
TTITLE10=Blow Your Top (Oh Yeah!)
EXTD=
EXTT0=
EXTT1=
EXTT2=
EXTT3=
EXTT4=
EXTT5=
EXTT6=
EXTT7=
EXTT8=
EXTT9=
EXTT10=
PLAYORDER=
